<?xml version="1.0" encoding="UTF-8"?>
<svg version="1.1" viewBox="0 0 1440 1316" width="1280" height="1280" xmlns="http://www.w3.org/2000/svg">
<path transform="translate(511,172)" d="m0 0h271l8 7 12 11 163 163 7 8 7 6v473l-3 14-7 12-9 9-10 6-4 2-6 1h-441l-13-5-11-8-7-8-5-11-2-8-1-364v-259l2-12 4-10 7-10 7-7 10-6 9-3z" fill="#169D61"/>
<path transform="translate(593,520)" d="m0 0h256l1 1v234l-4 1h-255l-1-1v-230l1-4z" fill="#F7FBF9"/>
<path transform="translate(782,173)" d="m0 0 4 2 17 16 162 162 7 8 7 6-3 1h-140l-18-3-12-6-10-9-7-11-4-10-1-7-1-147z" fill="#8CD1B2"/>
<path transform="translate(240 1e3)" d="m0 0 17 1 12 3 14 7 11 8-2 4-8 7-3 4-4-2-9-6-11-4-4-1h-18l-12 4-13 9-8 11-4 8-2 7v20l4 13 5 9 8 9 10 6 12 4 6 1h10l10-2 12-5 10-9 7-14 2-8h-47v-19h66v26l-5 16-6 10-12 12-16 9-11 3-7 1h-17l-17-4-16-8-10-9-8-9-8-16-4-13-1-6v-11l3-15 5-12 7-10 9-11 10-7 14-7 11-3z" fill="#6D706F"/>
<path transform="translate(557,1055)" d="m0 0h10l10 3 9 6 2-6 17-1v94l-3 11-7 11-9 8-12 5-5 1h-12l-12-3-9-5-9-8-6-10 6-4 9-4 4 1 5 8 8 5 3 1h13l8-4 6-7 2-6 2-15-13 8-7 2h-12l-13-4-11-8-8-11-4-10-1-3v-17l4-12 4-8 7-8 10-6 8-3zm-1 18-10 6-6 9-2 7v13l5 10 7 7 8 3h9l10-4 7-8 4-12v-7l-3-10-6-8-5-4-5-2z" fill="#6D716F"/>
<path transform="translate(358,1055)" d="m0 0h14l13 4 9 6 7 7 6 12 3 12v8l-3 13-6 11-9 9-10 6-11 3h-15l-12-4-9-5-9-9-6-12-2-7v-17l4-11 7-11 9-8 11-5zm0 18-8 3-5 5-4 5-2 6-1 11 2 9 6 9 5 4 7 3h12l10-5 6-7 3-7 1-5v-9l-4-10-4-5-10-6-3-1z" fill="#6C6F6E"/>
<path transform="translate(809,1017)" d="m0 0h14l9 2 9 6 5 4 6 9 1 4-8 4-1 1h-5l-8-10-9-4h-14l-9 5-4 6-1 3v7l4 7 14 7 19 7 11 6 7 6 5 8 3 9v12l-3 10-7 9-8 6-12 4-5 1h-13l-12-4-10-6-8-9-6-10 1-5 12-6 7 12 5 6 9 5 4 1h9l10-3 5-3 4-7 1-4v-7l-4-8-8-6-14-6-16-6-11-7-6-7-4-10v-13l4-9 7-8 5-4 10-4z" fill="#6D7170"/>
<path transform="translate(458,1055)" d="m0 0h12l12 3 10 6 8 7 6 10 3 11v17l-3 10-6 10-8 8-10 6-12 3h-13l-12-3-10-6-5-5-6-7-5-12-1-4v-16l4-13 6-9 7-7 14-7zm0 18-8 3-5 4-6 10-1 4v12l3 9 8 9 10 4h8l9-3 8-6 4-6 2-10-1-11-5-10-7-6-7-3z" fill="#6C6F6E"/>
<path transform="translate(685,1055)" d="m0 0h13l12 4 11 8 7 10 4 9v4l-20 8-24 10-15 6 2 5 7 6 5 2h13l8-4 7-7 5 1 11 8-1 4-11 10-8 4-12 3h-11l-13-3-10-6-7-7-7-14-2-8v-18l5-13 6-8 9-8 11-5zm3 17-10 5-7 8-3 10 1 4 13-5 19-8 8-4-2-4-5-4-4-2z" fill="#6D706F"/>
<path transform="translate(871,1020)" d="m0 0h16v48l12-9 11-3h8l12 3 8 6 5 8 3 12v58h-16l-1-56-3-8-4-5-9-3-11 1-6 4-7 10-1 4-1 53h-16l-1-3 1-28z" fill="#6D7270"/>
<path transform="translate(993,1056)" d="m0 0h13l12 3 11 8 7 10 4 10 1 5v11l-6 1h-61l2 10 5 8 7 6 7 3h11l9-4 5-4 3-5 7 1 8 3-1 5-9 10-9 6-10 3h-16l-10-3-8-5-6-5-7-11-4-13v-18l4-12 7-10 8-7 8-4zm-2 15-9 6-8 11-1 3h52l-4-10-7-7-7-3z" fill="#6D7270"/>
<path transform="translate(1085,1056)" d="m0 0h14l13 4 10 8 6 10 4 13v12l-1 1h-65l2 10 5 8 7 6 7 3h11l9-4 5-5 2-4 7 1 7 3 1 2-3 6-6 7-10 6-10 3h-15l-10-3-9-5-8-8-7-14-2-14 1-12 5-12 6-9 8-7 8-4zm-2 15-6 3-7 7-3 5v5h49l-1-6-6-8-5-4-5-2z" fill="#6D716F"/>
<path transform="translate(808,362)" d="m0 0 28 5h140l-1 322-1 24h-1l-1-326-2-4-4 1-1 9h-2l1 3-4 1-5 1-1-3-4-1-1 3-2-3-4-1-2 1-2-4h-2l-1-2-13-1v-1l-7-1-3 1-7-3-7 1-13-1-14 1-13-1h-9l-7-1-5 1-4 1-1-3-4-2-6-4v-2l-4-2-5-4-6-4z" fill="#0A8C55"/>
<path transform="translate(646,682)" d="m0 0h56l1 1v39l-12 1h-59l-8-1-1-3v-26l1-10z" fill="#159C60"/>
<path transform="translate(644,617)" d="m0 0h58l1 1v40h-78l-2-2v-38z" fill="#159C60"/>
<path transform="translate(754,617)" d="m0 0h60l2 1v40h-78l-1-1v-39z" fill="#159C60"/>
<path transform="translate(976,368)" d="m0 0h3v472l-3 14-7 12-9 9-10 6-4 2-6 1h-91l-3-1h-9v-2l-3 1-6-1 3-2 22-1 31-1h50l1-1 12-2 4-2 1-2 5-3h2l2-4 3-4h2v-3h2l1-6 2-7 1-18 1-112 1-24 1-320z" fill="#0D8E57"/>
<path transform="translate(762,682)" d="m0 0h53l1 1v40h-55l-24-1v-39z" fill="#159C60"/>
<path transform="translate(624,553)" d="m0 0h79v40h-80v-26z" fill="#169C61"/>
<path transform="translate(737,553)" d="m0 0h79v40h-79z" fill="#159C60"/>
<path transform="translate(1225,1056)" d="m0 0h14l9 2 9 6 7 8 1 3-9 5h-5l-8-7-6-2h-9l-9 3-3 4v6l1 3 15 5 19 5 9 6 5 6 2 6v10l-5 9-9 8-11 4h-17l-10-3-8-6-8-9-2-3v-4l10-4 5 1 6 8 10 5h11l8-4 3-5-1-6-5-5-9-3-17-4-8-4-6-5-5-10v-7l3-9 5-6 9-5z" fill="#6D706F"/>
<path transform="translate(620,1009)" d="m0 0h18l1 1v133h-20v-133z" fill="#6C6F6E"/>
<path transform="translate(1152,1033)" d="m0 0h15l1 4v21l20 1 1 1v12l-1 1h-19l-1 16 1 32 2 6 8 3 7-2 3 5 3 9-4 2h-16l-9-3-7-6-4-9-1-53h-14l-1-14 3-1 13 1z" fill="#6D7170"/>
<path transform="translate(850,521)" d="m0 0 3 2v7l1 4-1 6 2 1-1 1 1 5h-2l2 10 1 44 1 2v78h-2l1 8 1 49-2 12h-2l-1 4-2 1z" fill="#0A8C55"/>
<path transform="translate(978,370)" d="m0 0h1v470h-1l-1-60h-1v-384l1-3z" fill="#8CD1B2"/>
<path transform="translate(976,368)" d="m0 0h3l-1 25-1 3v378h1v73l-3 9-1-3v-164l1-320z" fill="#169D61"/>
<path transform="translate(977,774)" d="m0 0h1v73l-3 9-1-3 1-73h2z" fill="#1B9F65"/>
<path transform="translate(827,755)" d="m0 0h19v3l-9 1h-9l-12 1-4-1-9 1-4-1-3 1-5-1h-22l-6-1v-1l23-1z" fill="#0A8B55"/>
<path transform="translate(762,682)" d="m0 0h53l1 4-1 6-1-2h-3l-1-2-6-1v-2h-36v1h-5v-1h-19l-3 2h-3l-1-4z" fill="#0E9259"/>
<path transform="translate(646,682)" d="m0 0h56l1 3-1 4h-2v-2l-7-1v-1l-62-1v2l-6 1-1-4z" fill="#0F935A"/>
<path transform="translate(467,857)" d="m0 0h2v3l3 1 7 7 5 2-3 1v2l4-1 2 1v2l7 2 1 5-9-3-11-8-7-8z" fill="#2D9C6C"/>
<path transform="translate(815,584)" d="m0 0h1v9h-79l1-5 6 3 66 1v-2l3-2z" fill="#0A8B55"/>
<path transform="translate(624,570)" d="m0 0h2l1 19 1 3h41v1h-46z" fill="#0B8C55"/>
<path transform="translate(806,683)" d="m0 0h10l-1 9-1-2h-3l-1-2-6-1v-2h2z" fill="#0A8C55"/>
<path transform="translate(702,584)" d="m0 0h1v9h-27v-1h22l1-3h2z" fill="#0D8A55"/>
<path transform="translate(624,683)" d="m0 0h33v1h-26v2l-6 1z" fill="#0A8C55"/>
<path transform="translate(624,638)" d="m0 0h2v12l1 7 2 1-6-1z" fill="#0C8B55"/>
<path transform="translate(694,683)" d="m0 0h9l-1 6h-2v-2l-7-1z" fill="#0A8C55"/>
<path transform="translate(702,711)" d="m0 0h1v11h-5z" fill="#0D8B55"/>
<path transform="translate(737,618)" d="m0 0h15l-4 2-8 1h-3z" fill="#0A8C55"/>
<path transform="translate(737,553)" d="m0 0h8v2l-7 4z" fill="#0A8C55"/>
</svg>
