<?xml version="1.0" encoding="iso-8859-1"?>
<!-- Uploaded to: SVG Repo, www.svgrepo.com, Generator: SVG Repo Mixer Tools -->
<svg version="1.1" id="Layer_1" xmlns="http://www.w3.org/2000/svg" xmlns:xlink="http://www.w3.org/1999/xlink" 
	 viewBox="0 0 390 390" xml:space="preserve">
<g>
	<polygon style="fill:#E6E6E6;" points="337.5,81.4 337.5,390 52.5,390 52.5,0 256.1,0 271.1,15 	"/>
	<polygon style="fill:#CCCCCC;" points="337.5,81.4 337.5,81.4 271.1,96.4 271.1,15 	"/>
	<polygon style="fill:#F2F2F2;" points="256.1,81.4 256.1,0 337.5,81.4 	"/>
	<g>
		<rect x="113.673" y="138.687" style="fill:#666666;" width="162.655" height="19.364"/>
		<rect x="113.673" y="180.003" style="fill:#666666;" width="162.655" height="19.364"/>
		<rect x="113.673" y="221.318" style="fill:#666666;" width="162.655" height="19.364"/>
		<rect x="113.673" y="262.634" style="fill:#666666;" width="162.655" height="19.364"/>
		<rect x="113.673" y="303.949" style="fill:#666666;" width="162.655" height="19.364"/>
	</g>
	<polygon style="fill:#FF5069;" points="226.495,79 226.495,100.908 205.955,100.908 205.955,121.45 184.045,121.45 
		184.045,100.908 163.505,100.908 163.505,79 184.045,79 184.045,58.46 205.955,58.46 205.955,79 	"/>
</g>
</svg>